<svg id="Capa_1" enable-background="new 0 0 512 512" height="512" viewBox="0 0 512 512" width="512" xmlns="http://www.w3.org/2000/svg"><g><g><g><g><path d="m44.296 171.377h102.91v96.762h-102.91z" fill="#80d261"/><path d="m44.296 171.377h25.704v96.762h-25.704z" fill="#68ca44"/><g><path d="m78.454 171.377v32.623c0 1.105.895 2 2 2h24.709c1.105 0 2-.895 2-2v-32.623z" fill="#fd4755"/></g></g><g><path d="m147.206 171.377h108.794v96.762h-108.794z" fill="#01c0fa"/><path d="m147.206 171.377h31.794v96.762h-31.794z" fill="#08a9f1"/><g><path d="m187.248 171.377v32.623c0 1.105.895 2 2 2h24.709c1.105 0 2-.895 2-2v-32.623z" fill="#fd4755"/></g></g><g><path d="m256 171.377h108.794v96.762h-108.794z" fill="#80d261"/><path d="m256 171.377h31.206v96.762h-31.206z" fill="#68ca44"/><g><path d="m296.042 171.377v32.623c0 1.105.895 2 2 2h24.709c1.105 0 2-.895 2-2v-32.623z" fill="#fd4755"/></g></g><g><path d="m364.793 171.377h102.91v96.762h-102.91z" fill="#01c0fa"/><path d="m364.793 171.377h31.206v96.762h-31.206z" fill="#08a9f1"/><g><path d="m404.836 171.377v32.623c0 1.105.895 2 2 2h24.709c1.105 0 2-.895 2-2v-32.623z" fill="#fd4755"/></g></g></g><g><path d="m44.296 268.139h423.408v25.203h-423.408z" fill="#faea5e"/></g><g><path d="m44.296 268.139h37.704v25.203h-37.704z" fill="#ffd600"/></g><g><g><g><path d="m44.296 328.584h102.91v96.762h-102.91z" fill="#ea9b58"/><path d="m44.296 328.584h25.704v96.762h-25.704z" fill="#d88a55"/><g><path d="m78.454 328.584v32.416c0 1.105.895 2 2 2h24.709c1.105 0 2-.895 2-2v-32.416z" fill="#fd4755"/></g></g><g><path d="m256 425.346v-91.762c0-2.761-2.239-5-5-5h-103.794v96.762z" fill="#ea9b58"/><path d="m147.206 328.584h31.794v96.762h-31.794z" fill="#d88a55"/><g><path d="m187.248 328.584v32.416c0 1.105.895 2 2 2h24.709c1.105 0 2-.895 2-2v-32.416z" fill="#fd4755"/></g></g><g><g><path d="m369.793 328.584c-2.761 0-5 2.239-5 5v91.762h102.91v-96.762z" fill="#ea9b58"/></g><path d="m396 425.346v-91.762c0-2.761 2.239-5 5-5h-31.206c-2.761 0-5 2.239-5 5v91.762z" fill="#d88a55"/><g><path d="m404.836 328.584v32.416c0 1.105.895 2 2 2h24.709c1.105 0 2-.895 2-2v-32.416z" fill="#fd4755"/></g></g></g><path d="m44.296 425.346h423.408v25.203h-423.408z" fill="#faea5e"/><g><path d="m44.296 425.346h37.704v25.203h-37.704z" fill="#ffd600"/></g></g><g><g><path d="m256 104.262v-96.762h-103.794c-2.761 0-5 2.239-5 5v91.762z" fill="#ea9b58"/><path d="m179 104.262v-91.762c0-2.761 2.239-5 5-5h-31.794c-2.761 0-5 2.239-5 5v91.762z" fill="#d88a55"/><g><path d="m187.248 7.5v32.5c0 1.105.895 2 2 2h24.709c1.105 0 2-.895 2-2v-32.5z" fill="#fd4755"/></g></g><g><path d="m256 7.5h108.794v96.762h-108.794z" fill="#ea9b58"/><path d="m256 7.5h31.206v96.762h-31.206z" fill="#d88a55"/><g><path d="m296.042 7.5v32.5c0 1.105.895 2 2 2h24.709c1.105 0 2-.895 2-2v-32.5z" fill="#fd4755"/></g></g><g><path d="m364.793 7.5h102.91v96.762h-102.91z" fill="#ea9b58"/><path d="m364.793 7.5h31.206v96.762h-31.206z" fill="#d88a55"/><g><path d="m404.836 7.5v32.5c0 1.105.895 2 2 2h24.709c1.105 0 2-.895 2-2v-32.5z" fill="#fd4755"/></g></g></g><g><path d="m44.296 104.262h423.408v25.203h-423.408z" fill="#faea5e"/></g><g><path d="m44.296 104.262h37.704v25.203h-37.704z" fill="#ffd600"/></g></g><g><path d="m19.093 501.5v-491c0-1.657 1.343-3 3-3h19.203c1.657 0 3 1.343 3 3v491c0 1.657-1.343 3-3 3h-19.203c-1.657 0-3-1.343-3-3z" fill="#596c76"/></g><g><path d="m467.703 501.5v-494h22.203c1.657 0 3 1.343 3 3v491c0 1.657-1.343 3-3 3h-19.203c-1.656 0-3-1.343-3-3z" fill="#596c76"/></g><g><path d="m105.959 221.5h-26.301c-4.143 0-7.5 3.358-7.5 7.5s3.357 7.5 7.5 7.5h26.302c4.143 0 7.5-3.358 7.5-7.5s-3.358-7.5-7.501-7.5z"/><path d="m188.452 236.5h26.302c4.143 0 7.5-3.358 7.5-7.5s-3.357-7.5-7.5-7.5h-26.302c-4.143 0-7.5 3.358-7.5 7.5s3.357 7.5 7.5 7.5z"/><path d="m297.246 236.5h26.302c4.143 0 7.5-3.358 7.5-7.5s-3.357-7.5-7.5-7.5h-26.302c-4.143 0-7.5 3.358-7.5 7.5s3.357 7.5 7.5 7.5z"/><path d="m406.04 236.5h26.302c4.143 0 7.5-3.358 7.5-7.5s-3.357-7.5-7.5-7.5h-26.302c-4.143 0-7.5 3.358-7.5 7.5s3.357 7.5 7.5 7.5z"/><path d="m105.959 378.5h-26.301c-4.143 0-7.5 3.358-7.5 7.5s3.357 7.5 7.5 7.5h26.302c4.143 0 7.5-3.358 7.5-7.5s-3.358-7.5-7.501-7.5z"/><path d="m214.753 378.5h-26.302c-4.143 0-7.5 3.358-7.5 7.5s3.357 7.5 7.5 7.5h26.302c4.143 0 7.5-3.358 7.5-7.5s-3.357-7.5-7.5-7.5z"/><path d="m406.04 393.5h26.302c4.143 0 7.5-3.358 7.5-7.5s-3.357-7.5-7.5-7.5h-26.302c-4.143 0-7.5 3.358-7.5 7.5s3.357 7.5 7.5 7.5z"/><path d="m214.753 57.5h-26.302c-4.143 0-7.5 3.358-7.5 7.5s3.357 7.5 7.5 7.5h26.302c4.143 0 7.5-3.358 7.5-7.5s-3.357-7.5-7.5-7.5z"/><path d="m323.547 57.5h-26.302c-4.143 0-7.5 3.358-7.5 7.5s3.357 7.5 7.5 7.5h26.302c4.143 0 7.5-3.358 7.5-7.5s-3.357-7.5-7.5-7.5z"/><path d="m432.341 57.5h-26.301c-4.143 0-7.5 3.358-7.5 7.5s3.357 7.5 7.5 7.5h26.302c4.143 0 7.5-3.358 7.5-7.5s-3.358-7.5-7.501-7.5z"/><path d="m489.907 0h-337.701c-6.893 0-12.5 5.607-12.5 12.5v84.262h-87.91v-86.262c0-5.79-4.71-10.5-10.5-10.5h-19.203c-5.79 0-10.5 4.71-10.5 10.5v491c0 5.79 4.71 10.5 10.5 10.5h19.202c5.79 0 10.5-4.71 10.5-10.5v-43.451h408.408v43.451c0 5.79 4.71 10.5 10.5 10.5h19.203c5.79 0 10.5-4.71 10.5-10.5v-491c.001-5.79-4.709-10.5-10.499-10.5zm-453.112 497h-10.202v-482h10.202zm375.54-482h13.71v19.5h-13.71zm-108.793 0h13.71v19.5h-13.71zm-40.042 0h25.042v25c0 5.238 4.262 9.5 9.5 9.5h24.71c5.238 0 9.5-4.262 9.5-9.5v-25h25.042v81.762h-93.794zm-68.752 0h13.71v19.5h-13.71zm-40.042 0h25.042v25c0 5.238 4.262 9.5 9.5 9.5h24.71c5.238 0 9.5-4.262 9.5-9.5v-25h25.042v81.762h-93.794zm-102.911 163.877h19.158v25.123c0 5.238 4.262 9.5 9.5 9.5h24.71c5.238 0 9.5-4.262 9.5-9.5v-25.123h25.042v81.762h-87.91zm34.159 19.623v-19.623h13.71v19.623zm-34.159 137.584h19.158v24.916c0 5.238 4.262 9.5 9.5 9.5h24.71c5.238 0 9.5-4.262 9.5-9.5v-24.916h25.042v81.762h-87.91zm34.159 19.416v-19.416h13.71v19.416zm374.25 87.549h-408.409v-10.203h408.408v10.203zm0-25.203h-87.91v-81.762h25.042v24.916c0 5.238 4.262 9.5 9.5 9.5h24.71c5.238 0 9.5-4.262 9.5-9.5v-24.916h19.158zm-47.869-62.346v-19.416h13.71v19.416zm47.869-69.658h-66.204c-4.143 0-7.5 3.358-7.5 7.5s3.357 7.5 7.5 7.5h66.204v20.242h-90.41c-6.893 0-12.5 5.607-12.5 12.5v84.262h-93.794v-19.846c0-4.142-3.357-7.5-7.5-7.5s-7.5 3.358-7.5 7.5v19.846h-93.794v-81.762h25.042v24.916c0 5.238 4.262 9.5 9.5 9.5h24.71c5.238 0 9.5-4.262 9.5-9.5v-24.916h25.042v26.916c0 4.142 3.357 7.5 7.5 7.5s7.5-3.358 7.5-7.5v-29.416c0-6.893-5.607-12.5-12.5-12.5h-199.205v-20.242h307.205c4.143 0 7.5-3.358 7.5-7.5s-3.357-7.5-7.5-7.5h-307.205v-10.203h408.408v10.203zm-265.456 69.658v-19.416h13.71v19.416zm-5.5-142h24.71c5.238 0 9.5-4.262 9.5-9.5v-25.123h25.042v81.762h-93.794v-81.762h25.042v25.123c0 5.238 4.261 9.5 9.5 9.5zm5.5-15v-19.623h13.71v19.623zm103.294 15h24.71c5.238 0 9.5-4.262 9.5-9.5v-25.123h25.042v81.762h-93.794v-81.762h25.042v25.123c0 5.238 4.261 9.5 9.5 9.5zm5.5-15v-19.623h13.71v19.623zm156.662 62.139h-87.91v-81.762h25.042v25.123c0 5.238 4.262 9.5 9.5 9.5h24.71c5.238 0 9.5-4.262 9.5-9.5v-25.123h19.158zm-47.869-62.139v-19.623h13.71v19.623zm47.869-76.535h-310.204c-4.143 0-7.5 3.358-7.5 7.5s3.357 7.5 7.5 7.5h310.204v26.913h-408.409v-26.913h63.205c4.143 0 7.5-3.358 7.5-7.5s-3.357-7.5-7.5-7.5h-63.205v-10.203h408.408v10.203zm0-25.203h-87.91v-81.762h25.042v25c0 5.238 4.262 9.5 9.5 9.5h24.71c5.238 0 9.5-4.262 9.5-9.5v-25h19.158zm25.203 400.238h-10.203v-482h10.203z"/></g></g></svg>